<?xml version="1.0"?>
<svg width="375" height="374.999991" xmlns="http://www.w3.org/2000/svg" xmlns:svg="http://www.w3.org/2000/svg" preserveAspectRatio="xMidYMid meet" version="1.0">
 <defs>
  <clipPath id="4d9e09436c">
   <path clip-rule="nonzero" d="m79,64l231,0l0,232l-231,0l0,-232zm0,0" id="svg_1"/>
  </clipPath>
  <clipPath id="ff9300c314">
   <path clip-rule="nonzero" d="m11.54,49.04l0,276.92c0,20.72 16.78,37.5 37.5,37.5l276.92,0c20.72,0 37.5,-16.78 37.5,-37.5l0,-276.92c0,-20.72 -16.78,-37.5 -37.5,-37.5l-276.92,0c-20.72,0 -37.5,16.78 -37.5,37.5zm0,0" id="svg_2"/>
  </clipPath>
 </defs>
 <g class="layer">
  <title>Layer 1</title>
  <g clip-path="url(#4d9e09436c)" id="svg_3">
   <g clip-path="url(#ff9300c314)" id="svg_4">
    <path d="m80.13,65.7c-0.36,0.82 -0.47,26.74 -0.36,57.57l0.36,56.17l24.38,-0.24c13.37,0 24.28,0.12 24.28,0.47c0,0.24 -3.06,1.41 -6.69,2.46c-16.53,4.81 -29.31,15.48 -36.11,30.25c-16.53,35.76 4.92,75.86 43.73,81.84c21.58,3.29 45.14,-7.74 56.4,-26.38c4.45,-7.5 8.33,-18.05 8.44,-23.45c0,-2.46 0.59,-1.05 1.76,3.99c5.28,24.39 24.74,42.68 49.13,45.73c5.16,0.7 21.81,1.17 36.93,0.93l27.55,-0.35l0,-114.9l-46.89,-0.7l7.85,-2.7c15.01,-5.05 25.91,-14.66 33.07,-29.08c7.38,-14.54 7.97,-31.19 1.75,-46.78c-5.98,-15.36 -19.46,-27.79 -36.23,-33.42c-9.37,-3.16 -25.21,-2.93 -35.05,0.59c-19.82,6.91 -35.65,25.44 -38.34,44.78l-0.94,6.34l-0.94,-6.34c-2.23,-14.89 -14.89,-32.82 -28.49,-40.44c-11.84,-6.57 -19.93,-7.74 -54.17,-7.74c-23.69,0 -31.07,0.35 -31.42,1.4zm122.17,84.31c7.39,13.6 23.22,25.09 39.4,28.6c5.27,1.18 6.21,1.65 3.51,1.65c-5.74,0.12 -18.64,5.27 -25.91,10.31c-11.61,7.98 -20.17,21.34 -22.86,35.53l-1.29,6.92l-1.52,-7.27c-4.46,-22.04 -22.17,-39.98 -43.86,-44.44l-6.8,-1.4l8.21,-2.12c11.02,-2.81 18.99,-7.27 26.96,-15.12c7.51,-7.39 13.25,-18.06 15.37,-28.14l1.4,-6.8l2.11,8.21c1.06,4.57 3.52,10.9 5.28,14.07zm0,0" fill="#171717" fill-rule="nonzero" id="svg_5"/>
   </g>
  </g>
 </g>
</svg>