<?xml version="1.0" standalone="no"?>
<!DOCTYPE svg PUBLIC "-//W3C//DTD SVG 20010904//EN"
 "http://www.w3.org/TR/2001/REC-SVG-20010904/DTD/svg10.dtd">
<svg version="1.0" xmlns="http://www.w3.org/2000/svg"
 width="300.000000pt" height="300.000000pt" viewBox="0 0 300.000000 300.000000"
 preserveAspectRatio="xMidYMid meet">

<g transform="translate(0.000000,300.000000) scale(0.100000,-0.100000)"
fill="#000000" stroke="none">
<path d="M585 2538 c-3 -7 -4 -228 -3 -491 l3 -479 208 2 c114 0 207 -1 207
-4 0 -2 -26 -12 -57 -21 -141 -41 -250 -132 -308 -258 -141 -305 42 -647 373
-698 184 -28 385 66 481 225 38 64 71 154 72 200 0 21 5 9 15 -34 45 -208 211
-364 419 -390 44 -6 186 -10 315 -8 l235 3 0 490 0 490 -200 3 -200 3 67 23
c128 43 221 125 282 248 63 124 68 266 15 399 -51 131 -166 237 -309 285 -80
27 -215 25 -299 -5 -169 -59 -304 -217 -327 -382 l-8 -54 -8 54 c-19 127 -127
280 -243 345 -101 56 -170 66 -462 66 -202 0 -265 -3 -268 -12z m1042 -719
c63 -116 198 -214 336 -244 45 -10 53 -14 30 -14 -49 -1 -159 -45 -221 -88
-99 -68 -172 -182 -195 -303 l-11 -59 -13 62 c-38 188 -189 341 -374 379 l-58
12 70 18 c94 24 162 62 230 129 64 63 113 154 131 240 l12 58 18 -70 c9 -39
30 -93 45 -120z"/>
</g>
</svg>
